<svg width="119" height="31" viewBox="0 0 119 31" fill="none" xmlns="http://www.w3.org/2000/svg">
<path d="M18.64 14.6256C19.76 15.3989 20.6533 16.3989 21.32 17.6256C21.9867 18.8256 22.32 20.1589 22.32 21.6256C22.32 22.7989 22.0933 23.9056 21.64 24.9456C21.1867 25.9589 20.5733 26.8522 19.8 27.6256C19.0267 28.3722 18.12 28.9722 17.08 29.4256C16.0667 29.8522 14.9733 30.0656 13.8 30.0656H0.92L0.92 1.70558L13.4 1.70558C14.4667 1.70558 15.4667 1.91891 16.4 2.34558C17.3333 2.74558 18.1467 3.29225 18.84 3.98558C19.56 4.67891 20.12 5.49225 20.52 6.42558C20.92 7.35891 21.12 8.35891 21.12 9.42558C21.12 10.5722 20.8933 11.5856 20.44 12.4656C20.0133 13.3189 19.4133 14.0389 18.64 14.6256ZM7 12.3456H13.4C14.12 12.3456 14.7333 12.0922 15.24 11.5856C15.7467 11.0789 16 10.4656 16 9.74558C16 9.02558 15.7467 8.42558 15.24 7.94558C14.7333 7.46558 14.12 7.22558 13.4 7.22558H7V12.3456ZM13.8 24.5856C14.6 24.5856 15.28 24.2522 15.84 23.5856C16.4 22.8922 16.68 22.0922 16.68 21.1856C16.68 20.2522 16.4 19.4656 15.84 18.8256C15.28 18.1856 14.6 17.8656 13.8 17.8656H7V24.5856H13.8ZM31.5656 30.0656L26.0456 30.0656L26.0456 10.2256H31.5656V30.0656ZM28.8056 7.50558C27.9523 7.50558 27.2323 7.21225 26.6456 6.62558C26.059 6.03891 25.7656 5.31891 25.7656 4.46558C25.7656 3.61225 26.059 2.89225 26.6456 2.30558C27.2323 1.69225 27.9523 1.38558 28.8056 1.38558C29.659 1.38558 30.379 1.69225 30.9656 2.30558C31.5523 2.89225 31.8456 3.61225 31.8456 4.46558C31.8456 5.31891 31.5523 6.03891 30.9656 6.62558C30.379 7.21225 29.659 7.50558 28.8056 7.50558ZM43.0028 22.9456C43.0028 23.8789 43.2828 24.5989 43.8428 25.1056C44.4295 25.6122 45.1895 25.8656 46.1228 25.8656C46.8695 25.8656 47.6161 25.7189 48.3628 25.4256V30.0656C47.6961 30.2789 46.9895 30.4522 46.2428 30.5856C45.4961 30.7456 44.7495 30.8256 44.0028 30.8256C43.1495 30.8256 42.3361 30.7189 41.5628 30.5056C40.7895 30.2922 40.0961 29.9322 39.4828 29.4256C38.8695 28.8922 38.3761 28.1989 38.0028 27.3456C37.6561 26.4656 37.4828 25.3856 37.4828 24.1056V15.1456H34.6428V11.4256L37.4828 10.2256V5.78558H43.0028V10.2256H48.3628V15.1456H43.0028V22.9456ZM53.3366 8.54558C53.3366 7.15891 53.5366 5.97225 53.9366 4.98558C54.3632 3.97225 54.9232 3.14558 55.6166 2.50558C56.3099 1.83891 57.1099 1.35891 58.0166 1.06558C58.9232 0.745581 59.8832 0.58558 60.8966 0.58558C61.5099 0.58558 62.1232 0.638914 62.7366 0.745581C63.3499 0.852248 63.9632 1.01225 64.5766 1.22558L64.1366 5.26558L62.8166 5.06558C62.6032 5.03891 62.4032 5.02558 62.2166 5.02558C62.0566 4.99891 61.8966 4.98558 61.7366 4.98558C60.7232 4.98558 59.9766 5.23891 59.4966 5.74558C59.0432 6.22558 58.8166 6.93225 58.8166 7.86558V10.2256H64.1366V15.1456H58.8166V30.0656H53.3366V15.1456H50.7366V12.2256L53.3366 10.2256V8.54558ZM76.6928 9.66558C78.1061 9.66558 79.4395 9.94558 80.6928 10.5056C81.9461 11.0389 83.0395 11.7856 83.9728 12.7456C84.9061 13.6789 85.6395 14.7856 86.1728 16.0656C86.7328 17.3189 87.0128 18.6656 87.0128 20.1056C87.0128 21.5456 86.7328 22.9056 86.1728 24.1856C85.6395 25.4389 84.9061 26.5456 83.9728 27.5056C83.0395 28.4389 81.9461 29.1856 80.6928 29.7456C79.4395 30.2789 78.1061 30.5456 76.6928 30.5456C75.2528 30.5456 73.9061 30.2789 72.6528 29.7456C71.3995 29.1856 70.3061 28.4389 69.3728 27.5056C68.4395 26.5456 67.6928 25.4389 67.1328 24.1856C66.5995 22.9056 66.3328 21.5456 66.3328 20.1056C66.3328 18.6656 66.5995 17.3189 67.1328 16.0656C67.6928 14.7856 68.4395 13.6789 69.3728 12.7456C70.3061 11.7856 71.3995 11.0389 72.6528 10.5056C73.9061 9.94558 75.2528 9.66558 76.6928 9.66558ZM76.6928 25.7056C77.3595 25.7056 77.9728 25.5722 78.5328 25.3056C79.1195 25.0389 79.6261 24.6789 80.0528 24.2256C80.5061 23.7456 80.8528 23.1856 81.0928 22.5456C81.3595 21.8789 81.4928 21.1456 81.4928 20.3456C81.4928 19.5456 81.3595 18.7989 81.0928 18.1056C80.8528 17.4122 80.5061 16.8122 80.0528 16.3056C79.6261 15.7722 79.1195 15.3589 78.5328 15.0656C77.9728 14.7456 77.3595 14.5856 76.6928 14.5856C76.0261 14.5856 75.3995 14.7456 74.8128 15.0656C74.2261 15.3589 73.7061 15.7722 73.2528 16.3056C72.8261 16.8122 72.4795 17.4122 72.2128 18.1056C71.9728 18.7989 71.8528 19.5456 71.8528 20.3456C71.8528 21.1456 71.9728 21.8789 72.2128 22.5456C72.4795 23.1856 72.8261 23.7456 73.2528 24.2256C73.7061 24.6789 74.2261 25.0389 74.8128 25.3056C75.3995 25.5722 76.0261 25.7056 76.6928 25.7056ZM90.0616 0.825582H95.5816V30.0656H90.0616V0.825582ZM118.964 0.865582V30.0656H114.244L113.444 28.3456C112.831 28.9856 111.977 29.5189 110.884 29.9456C109.817 30.3456 108.697 30.5456 107.524 30.5456C106.111 30.5456 104.804 30.2789 103.604 29.7456C102.404 29.1856 101.364 28.4389 100.484 27.5056C99.6307 26.5456 98.9507 25.4389 98.4441 24.1856C97.9641 22.9056 97.7241 21.5456 97.7241 20.1056C97.7241 18.6656 97.9641 17.3189 98.4441 16.0656C98.9507 14.7856 99.6307 13.6789 100.484 12.7456C101.364 11.7856 102.404 11.0389 103.604 10.5056C104.804 9.94558 106.111 9.66558 107.524 9.66558C108.777 9.66558 109.884 9.81225 110.844 10.1056C111.831 10.3989 112.697 10.8922 113.444 11.5856V0.865582L118.964 0.865582ZM113.444 20.1856C113.444 19.1456 113.311 18.2789 113.044 17.5856C112.777 16.8656 112.404 16.2922 111.924 15.8656C111.444 15.4122 110.884 15.0922 110.244 14.9056C109.631 14.6922 108.964 14.5856 108.244 14.5856C107.524 14.5856 106.844 14.7322 106.204 15.0256C105.591 15.3189 105.044 15.7189 104.564 16.2256C104.111 16.7056 103.751 17.2922 103.484 17.9856C103.217 18.6522 103.084 19.3589 103.084 20.1056C103.084 20.8789 103.217 21.5989 103.484 22.2656C103.751 22.9322 104.111 23.5189 104.564 24.0256C105.044 24.5056 105.591 24.8922 106.204 25.1856C106.844 25.4789 107.524 25.6256 108.244 25.6256C109.684 25.6256 110.897 25.1856 111.884 24.3056C112.897 23.3989 113.417 22.0256 113.444 20.1856Z" fill="#200E32"/>
</svg>
